<?xml version="1.0" encoding="UTF-8" standalone="no"?>
<!DOCTYPE svg PUBLIC "-//W3C//DTD SVG 1.1//EN" "http://www.w3.org/Graphics/SVG/1.1/DTD/svg11.dtd">
<svg width="100%" height="100%" viewBox="0 0 16 16" version="1.1" xmlns="http://www.w3.org/2000/svg" xmlns:xlink="http://www.w3.org/1999/xlink" xml:space="preserve" xmlns:serif="http://www.serif.com/" style="fill-rule:evenodd;clip-rule:evenodd;stroke-linejoin:round;stroke-miterlimit:2;">
    <path d="M3.468,1.948C5.303,3.325 7.276,6.118 8,7.616C8.725,6.118 10.698,3.326 12.532,1.948C13.855,0.955 16,0.186 16,2.632C16,3.121 15.72,6.737 15.556,7.324C14.984,9.364 12.903,9.885 11.052,9.57C14.288,10.121 15.112,11.945 13.333,13.77C9.957,17.234 8.481,12.9 8.103,11.79C8.033,11.586 8,11.49 8,11.572C8,11.491 7.967,11.586 7.898,11.79C7.519,12.9 6.043,17.234 2.667,13.77C0.889,11.945 1.712,10.12 4.947,9.57C3.097,9.885 1.015,9.365 0.444,7.324C0.28,6.737 0,3.12 0,2.632C0,0.186 2.145,0.955 3.468,1.948" style="fill:white;fill-rule:nonzero;"/>
</svg>
