<?xml version="1.0" encoding="UTF-8" standalone="no"?>
<!DOCTYPE svg PUBLIC "-//W3C//DTD SVG 1.1//EN" "http://www.w3.org/Graphics/SVG/1.1/DTD/svg11.dtd">
<svg width="100%" height="100%" viewBox="0 0 360 104" version="1.1" xmlns="http://www.w3.org/2000/svg" xmlns:xlink="http://www.w3.org/1999/xlink" xml:space="preserve" xmlns:serif="http://www.serif.com/" style="fill-rule:evenodd;clip-rule:evenodd;stroke-linejoin:round;stroke-miterlimit:2;">
    <g id="Black-AnotherRobot" serif:id="Black AnotherRobot" transform="matrix(0.126009,0,0,0.126009,-60.846906,-45.235321)">
        <g id="second-t" serif:id="second t" transform="matrix(1,0,0,1,-582.368655,72.128228)">
            <path d="M3922.144,1088.339C3919.475,1106.073 3917.478,1113.342 3871.891,1111.496C3869.908,1111.416 3803.626,1113.507 3801.632,1035.106C3801.258,1020.4 3802.094,952.786 3800.955,949.671C3796.723,938.103 3764.657,958 3766.412,916.499C3766.8,907.334 3769.076,901.158 3778.016,896.629C3783.061,894.074 3793.754,894.368 3793.911,894.337C3803.349,892.425 3801.218,889.279 3801.381,879.604C3801.6,844.273 3797.744,826.176 3834.923,827.93C3860.036,829.115 3857.759,853.322 3857.865,867.401C3857.938,877.16 3857.432,889.652 3859.397,892.022C3865.231,899.057 3904.95,888.265 3916.564,900.338C3917.065,900.859 3919.45,903.338 3920.878,908.279C3922.317,913.261 3922.16,920.498 3922.161,920.518C3921.635,928.4 3921.768,928.393 3919.111,935.821C3915.775,939.162 3914.789,944.915 3896.38,945.256C3873.75,945.674 3861.064,944.305 3858.941,948.781C3856.352,954.239 3857.939,1014.855 3857.706,1022.813C3856.579,1061.257 3882.798,1060.583 3892.293,1060.954C3902.317,1060.897 3911.354,1059.169 3917.825,1067.064C3923.059,1073.449 3922.114,1084.072 3922.144,1088.339Z" style="fill:rgb(21,23,28);"/>
        </g>
        <g id="third-o" serif:id="third o" transform="matrix(1,0,0,1,-582.368655,72.128228)">
            <path d="M3758.89,1002.397C3758.264,1020.264 3758.083,1033.514 3745.019,1059.645C3735.324,1079.039 3695.832,1127.485 3614.498,1110.868C3594.758,1106.835 3565.967,1090.043 3552.136,1068.209C3533.147,1038.231 3533.129,1014.224 3533.784,994.27C3536.003,926.744 3594.491,886.021 3655.108,890.622C3690.427,893.302 3757.859,916.469 3758.89,1002.397ZM3646.77,942.826C3644.626,943.035 3634.946,942.624 3621.755,947.955C3608.537,953.298 3595.816,967.758 3592.116,981.517C3575.297,1044.054 3630.248,1079.822 3675.358,1055.379C3698.163,1043.021 3705.606,1013.004 3702.739,994.359C3694.881,943.257 3651.588,943.317 3646.77,942.826Z" style="fill:rgb(21,23,28);"/>
        </g>
        <g id="b" transform="matrix(1,0,0,1,-582.368655,72.128228)">
            <path d="M3289.143,1022.943C3288.501,1012.151 3288.704,1012.161 3288.658,887.81C3288.636,827.252 3288.577,827.195 3289.898,822.106C3290.721,818.938 3295.321,801.225 3327.657,806.333C3349.969,809.857 3346.68,828.192 3346.67,867.361C3346.667,878.293 3346.691,880.685 3346.631,891.972C3346.598,898.072 3346.201,904.646 3356.474,900.402C3359.056,899.336 3393.586,880.487 3441.573,897.909C3464.714,906.31 3484.795,927.223 3491.753,940.771C3517.046,990.021 3511.206,1057.58 3466.598,1092.088C3415.271,1131.793 3299.29,1123.829 3289.143,1022.943ZM3344.175,994.184C3343.705,1007.223 3340.397,1041.857 3373.483,1058.151C3385.055,1063.85 3406.742,1063.564 3417.331,1058.785C3460.547,1039.278 3449.141,987.554 3447.27,981.631C3445.173,974.99 3442.439,965.379 3431.278,955.767C3403.614,931.945 3354.058,941.491 3346.121,981.517C3344.873,987.81 3344.953,987.766 3344.175,994.184Z" style="fill:rgb(21,23,28);"/>
        </g>
        <g id="second-o" serif:id="second o" transform="matrix(1,0,0,1,-582.368655,72.128228)">
            <path d="M3139.503,1114.304C3036.432,1109.944 3025.122,1022.884 3029.357,990.12C3041.591,895.448 3125.391,887.151 3155.97,891.146C3260.319,904.779 3272.945,1012.175 3238.765,1064.385C3212.606,1104.343 3175.816,1113.855 3139.503,1114.304ZM3139.597,942.751C3136.61,943.113 3100.945,943.35 3087.631,982.346C3077.275,1012.676 3091.697,1068.908 3151.563,1062.265C3178.489,1059.277 3204.94,1033.646 3198.403,989.885C3194.426,963.266 3171.059,946.351 3152.091,943.67C3143.783,942.496 3141.089,942.861 3139.597,942.751Z" style="fill:rgb(21,23,28);"/>
        </g>
        <g id="R" transform="matrix(1,0,0,1,-582.368655,72.128228)">
            <path d="M3005.414,879.433C3006.922,891.784 3007.938,891.707 3007.027,904.073C3004.093,943.903 2988.849,961.177 2982.744,968.44C2952.887,1000.348 2933.002,991.185 2939.155,1006.403C2940.724,1010.283 3003.316,1082.193 3007.47,1088.965C3013.734,1099.178 3006.14,1107.537 3000.762,1109.57C2996.111,1111.329 2957.943,1113.874 2948.428,1107.019C2939.571,1100.637 2872.649,1013.424 2864.952,1006.981C2861.966,1004.482 2861.874,1002.808 2828.604,1003.29C2805.891,1003.62 2808.597,1014.468 2808.655,1051.454C2808.709,1086.185 2813.342,1110.632 2783.537,1111.114C2777.701,1111.208 2755.378,1114.217 2751.126,1092.318C2749.817,1085.574 2750.11,1085.514 2750.279,1006.451C2750.492,906.982 2750.219,843.649 2750.701,838.706C2755.486,789.623 2806.182,796.291 2808.129,796.29C2902.43,796.241 2908.378,795.245 2931.231,800.356C2942.267,802.824 2958.007,810.706 2958.836,811.214C2997.926,835.17 3002.429,865.863 3005.414,879.433ZM2935.012,866.309C2930.923,862.491 2925.011,856.879 2914.746,853.411C2908.52,851.307 2901.028,848.776 2832.682,849.779C2805.999,850.171 2808.458,868.962 2808.554,890.902C2808.744,934.132 2805.631,945.947 2824.575,947.279C2831.335,947.754 2895.129,947.326 2898.106,947.228C2928.518,946.22 2943.691,926.286 2945.795,907.036C2948.544,881.88 2940.278,872.835 2935.012,866.309Z" style="fill:rgb(21,23,28);"/>
        </g>
        <g id="r" transform="matrix(4.09113,0,0,4.09113,-676.888527,565.1445)">
            <path d="M653.899,116.55C654.022,115.849 654.705,98.203 675.499,97.457C686.26,97.071 687.371,99.312 687.532,103.499C687.962,114.745 677.519,108.134 671.646,111.729C666.812,114.689 667.684,120.229 667.606,130.502C667.485,146.373 668.176,147.971 665.271,150.18C664.421,150.826 655.233,153.457 653.854,146.429C653.71,145.695 653.544,122.498 653.899,116.55Z" style="fill:rgb(21,23,28);"/>
        </g>
        <g id="e" transform="matrix(1,0,0,1,-582.368655,72.128228)">
            <path d="M2353.21,1064.197C2352,1061.933 2339.14,1042.841 2337.389,1006.465C2336.374,985.393 2343.005,946.728 2367.483,921.713C2418.749,869.325 2528.033,881.414 2545.409,969.817C2555.785,1022.609 2539.076,1023.999 2517.666,1024.136C2483.283,1024.357 2404.165,1024.076 2403.389,1024.309C2396.536,1026.366 2396.727,1028.347 2399.413,1034.93C2403.326,1044.519 2415.093,1056.583 2427.405,1060.429C2461.218,1070.992 2491.688,1056.861 2496.738,1054.519C2513.444,1046.771 2521.137,1045.222 2531.244,1063.056C2537.162,1073.497 2539.596,1090.741 2513.983,1101.524C2492.401,1110.61 2480.417,1111.581 2468.628,1113.289C2455.286,1115.221 2425.798,1114.996 2402.614,1105.837C2368.984,1092.551 2358.341,1072.056 2353.21,1064.197ZM2427.259,944.004C2423.489,945.548 2409.459,949.205 2399.965,970.032C2394.59,981.824 2402.359,980.886 2415.369,980.761C2466.458,980.273 2488.097,982.84 2489.776,978.294C2492.827,970.034 2480.801,943.333 2448.11,941.094C2437.497,940.368 2437.592,941.455 2427.259,944.004Z" style="fill:rgb(21,23,28);"/>
        </g>
        <g id="h" transform="matrix(1,0,0,1,-582.368655,72.128228)">
            <path d="M2107.632,1105.698C2099.863,1096.556 2100.168,1095.563 2100.15,1047.365C2100.146,1036.585 2100.35,950.711 2100.181,928.723C2099.403,827.141 2100.044,823.545 2101.647,814.553C2103.535,810.832 2105.405,799.532 2124.949,799.314C2133.675,799.216 2157.341,795.298 2158.105,826.428C2158.534,843.932 2157.263,897.001 2158.654,899.612C2160.545,903.164 2164.656,902.328 2165.209,902.215C2166.894,901.872 2173.539,895.725 2198.569,891.985C2218.366,889.027 2270.813,891.067 2293.593,936.405C2304.022,957.162 2303.507,981.245 2303.576,998.287C2303.581,999.594 2303.657,1069.561 2303.441,1088.193C2303.348,1088.711 2303.896,1110.019 2280.32,1111.102C2272.267,1111.473 2272.345,1111.16 2264.312,1110.787C2263.643,1110.529 2254.391,1109.144 2249.074,1099.849C2245.612,1093.796 2246.35,1088.736 2246.309,1035.091C2246.27,982.862 2247.712,982.536 2242.305,966.042C2241.111,963.843 2237.017,949.645 2215.025,944.635C2203.823,942.083 2175.212,942.367 2162.126,961.711C2155.841,971.001 2158.242,974.301 2157.595,1059.637C2157.431,1081.208 2160.098,1101.843 2145.306,1108.604C2143.07,1109.625 2141.944,1109.911 2141.64,1109.988C2139.537,1110.523 2139.527,1110.071 2137.391,1110.614C2135.908,1110.668 2134.541,1110.735 2133.272,1110.806C2131.573,1111.109 2129.807,1111.268 2127.996,1111.268C2127.414,1111.268 2126.837,1111.252 2126.265,1111.22C2119.279,1111.549 2115.632,1110.983 2107.632,1105.698Z" style="fill:rgb(21,23,28);"/>
        </g>
        <g id="first-t" serif:id="first t" transform="matrix(4.09113,0,0,4.09113,-676.888527,565.1445)">
            <path d="M511.132,91.506C511.128,93.739 511.123,96.391 511.155,96.558C511.468,98.191 511.853,98.108 513.514,98.155C519.956,98.336 526.723,96.699 527.129,102.53C527.637,109.84 525.84,110.612 518.499,110.55C512.692,110.501 511.149,109.885 511.119,113.492C510.958,132.472 511.121,132.856 511.772,134.397C515.608,143.474 526.918,134.02 527.156,143.504C527.247,147.098 527.386,150.718 521.469,151.105C514.364,151.57 508.2,151.412 503.113,146.933C499.688,143.918 498.899,141.263 498.331,139.553C496.235,133.233 497.473,119.427 497.18,112.521C497.016,108.651 491.743,112.621 488.678,108.383C487.741,107.087 486.059,98.995 492.465,98.206C495.552,97.826 496.551,98.93 497.16,96.463C497.179,96.388 497.178,93.736 497.178,93.499C497.177,89.49 496.081,82.297 502.533,81.896C512.196,81.296 511.099,86.696 511.132,91.506Z" style="fill:rgb(21,23,28);"/>
            <clipPath id="_clip1">
                <path d="M511.132,91.506C511.128,93.739 511.123,96.391 511.155,96.558C511.468,98.191 511.853,98.108 513.514,98.155C519.956,98.336 526.723,96.699 527.129,102.53C527.637,109.84 525.84,110.612 518.499,110.55C512.692,110.501 511.149,109.885 511.119,113.492C510.958,132.472 511.121,132.856 511.772,134.397C515.608,143.474 526.918,134.02 527.156,143.504C527.247,147.098 527.386,150.718 521.469,151.105C514.364,151.57 508.2,151.412 503.113,146.933C499.688,143.918 498.899,141.263 498.331,139.553C496.235,133.233 497.473,119.427 497.18,112.521C497.016,108.651 491.743,112.621 488.678,108.383C487.741,107.087 486.059,98.995 492.465,98.206C495.552,97.826 496.551,98.93 497.16,96.463C497.179,96.388 497.178,93.736 497.178,93.499C497.177,89.49 496.081,82.297 502.533,81.896C512.196,81.296 511.099,86.696 511.132,91.506Z"/>
            </clipPath>
            <g clip-path="url(#_clip1)">
                <path d="M506.379,99.265C506.527,99.174 506.425,98.873 506.572,98.782C506.852,98.611 507.224,98.442 507.53,98.559C507.999,98.74 508.932,99.167 508.642,99.578C508.57,99.681 508.622,99.284 507.162,99.081C506.749,99.024 506.793,99.322 506.379,99.265Z" style="fill:rgb(21,25,33);"/>
            </g>
        </g>
        <g id="first-o" serif:id="first o" transform="matrix(1,0,0,1,-582.368655,72.128228)">
            <path d="M1666.42,969.552C1668.592,962.741 1675.234,935.342 1702.232,914.691C1742.479,883.906 1801.307,880.5 1849.349,914.29C1873.268,931.113 1882.721,960.619 1884.229,965.328C1887.212,975.862 1887.542,975.713 1888.529,981.747C1895.172,1022.36 1878.624,1054.222 1875.706,1059.84C1860.777,1088.585 1827.369,1110.924 1785.469,1114.055C1727.834,1118.362 1681.216,1086.17 1668.328,1042.848C1657.242,1005.584 1662.641,987.379 1666.42,969.552ZM1729.011,966.229C1721.574,979.669 1721.437,979.666 1718.598,994.046C1718.333,1000.58 1718.172,1000.493 1718.271,1006.454C1718.33,1010.041 1718.673,1030.83 1735.977,1047.661C1765.98,1076.844 1831.008,1065.061 1832.835,1006.352C1833.499,985.003 1828.003,975.085 1822.034,965.638C1809.357,945.573 1761.521,925.844 1729.011,966.229Z" style="fill:rgb(21,23,28);"/>
        </g>
        <g id="n" transform="matrix(1,0,0,1,-582.368655,72.128228)">
            <path d="M1475.027,1002.365C1474.986,1047.687 1475.291,1047.615 1475.016,1084.183C1474.871,1103.498 1466.166,1111.087 1449.851,1111.212C1441.195,1111.278 1424.375,1113.032 1418.67,1095.957C1416.469,1089.369 1416.889,992.002 1418.565,969.836C1421.949,948.657 1428.361,926.116 1454.317,908.789C1479.401,892.044 1514.874,889.918 1531.754,890.963C1607.197,895.63 1620.378,942.892 1622.526,948.877C1622.62,949.181 1625.581,956.758 1627.114,965.321C1628.617,973.713 1628.73,974.346 1628.358,1071.885C1628.324,1079.837 1628.521,1082.749 1628.225,1086.972C1628.431,1088.01 1628.537,1089.072 1628.537,1090.153C1628.537,1092.689 1627.952,1095.121 1626.878,1097.374C1625.909,1099.937 1621.465,1110.667 1605.289,1111.028L1605.057,1111.033C1603.708,1111.188 1602.326,1111.268 1600.921,1111.268C1599.889,1111.268 1598.871,1111.225 1597.869,1111.141C1589.726,1111.095 1582.707,1110.08 1577.1,1104.286C1576.319,1103.478 1575.938,1102.338 1575.156,1101.53C1569.815,1091.206 1570.606,1089.502 1570.848,1014.629C1570.962,979.42 1570.2,975.331 1565.048,965.208C1552.753,941.049 1520.035,942.743 1511.129,944.448C1470.969,952.138 1475.148,988.521 1475.027,1002.365Z" style="fill:rgb(21,23,28);"/>
        </g>
        <g id="A" transform="matrix(1,0,0,1,-582.368655,72.128228)">
            <path d="M1108.12,1110.433C1109.006,1109.948 1109.944,1109.192 1110.646,1109.677C1110.284,1109.742 1109.509,1110.084 1108.12,1110.433ZM1106.747,1110.734C1105.528,1110.963 1103.988,1111.158 1102.062,1111.232C1101.427,1111.256 1098.297,1111.268 1095.367,1111.268L1095.362,1111.268C1092.718,1111.269 1090.237,1111.259 1089.903,1111.241C1073.414,1110.326 1073.408,1106.545 1068.41,1101.282L1069.615,1099.367L1069.59,1099.316L1068.41,1101.19C1065.61,1094.973 1064.816,1095.067 1065.455,1088.291C1066.186,1080.54 1093.098,1022.81 1119.082,965.805C1153.325,890.679 1153.188,890.666 1156.272,884.187C1171.598,851.981 1187.308,816.118 1189.782,810.972C1204.244,780.892 1236.613,785.077 1249.413,797.809C1251.283,799.669 1255.477,803.841 1265.709,826.479C1291.384,883.287 1291.687,883.097 1293.898,888.043C1313.734,929.574 1377.684,1069.475 1379.193,1072.457C1391.647,1097.071 1379.949,1110.333 1363.874,1111.098C1336.284,1112.41 1333.777,1106.947 1331.095,1104.788C1328.24,1102.489 1327.247,1101.69 1310.439,1063.896C1302.803,1046.727 1296.566,1048.305 1278.065,1048.394C1235.819,1048.597 1159.309,1048.232 1155.511,1048.804C1145.385,1050.329 1143.215,1050.755 1126.066,1092.09C1119.887,1106.982 1112.814,1108.185 1110.646,1109.585C1109.849,1109.035 1108.749,1110.083 1107.765,1110.52C1107.887,1110.491 1108.006,1110.462 1108.12,1110.433C1107.631,1110.701 1107.157,1110.887 1106.747,1110.734L1106.963,1110.692C1106.82,1110.677 1106.683,1110.63 1106.554,1110.541C1106.264,1110.341 1105.999,1110.149 1105.756,1109.963L1105.668,1109.986C1105.934,1110.193 1106.228,1110.408 1106.554,1110.633C1106.617,1110.676 1106.681,1110.709 1106.747,1110.734ZM1212.307,895.873C1210.672,899.74 1174.231,980.803 1174.065,981.149C1165.078,999.883 1183.126,995.937 1220.769,995.924C1267.067,995.907 1276.558,998.719 1275.676,985.899C1275.29,980.283 1242.361,911.081 1232.505,888.076C1228.908,879.681 1227.542,876.2 1224.776,875.958C1219.365,875.483 1217.632,883.685 1217.483,884.077C1214.913,890.83 1212.431,895.589 1212.307,895.873Z" style="fill:rgb(21,23,28);"/>
        </g>
    </g>
    <g id="Master-Robot-Base" serif:id="Master Robot Base" transform="matrix(0.02955,0,0,0.02955,119.645045,-32.8)">
        <g id="Red-Robot-Head" serif:id="Red Robot Head">
            <g id="Left-Ear" serif:id="Left Ear" transform="matrix(0.569988,0,0,0.84069,393.289381,1184.557522)">
                <path d="M801.263,625.013L801.263,1368.45L729.391,1368.45C580.241,1368.45 459.151,1286.35 459.151,1185.227L459.151,808.235C459.151,707.112 580.241,625.013 729.391,625.013L801.263,625.013Z" style="fill:rgb(255,58,18);"/>
            </g>
            <g id="Right-Ear" serif:id="Right Ear" transform="matrix(0.569988,0,0,0.84069,2973.289381,1184.557522)">
                <path d="M801.263,808.235L801.263,1185.227C801.263,1286.35 680.173,1368.45 531.024,1368.45L459.151,1368.45L459.151,625.013L531.024,625.013C680.173,625.013 801.263,707.112 801.263,808.235Z" style="fill:rgb(255,58,18);"/>
            </g>
            <g id="Head" transform="matrix(1.416348,0,0,1.943905,-517.165553,-437.482993)">
                <path d="M2564.458,1045.107L2564.458,1514.157C2564.458,1651.605 2411.304,1763.195 2222.66,1763.195L1391.798,1763.195C1203.154,1763.195 1050,1651.605 1050,1514.157L1050,1045.107C1050,907.659 1203.154,796.069 1391.798,796.069L2222.66,796.069C2411.304,796.069 2564.458,907.659 2564.458,1045.107Z" style="fill:rgb(255,58,18);"/>
            </g>
        </g>
        <g id="Glasses">
            <g id="Right-Lens" serif:id="Right Lens" transform="matrix(0.928548,0,0,1.000955,1592.871443,1171.707317)">
                <path d="M1472.33,605.757L1472.33,1019.277C1472.33,1128.475 1376.761,1217.131 1259.048,1217.131L813.282,1217.131C695.569,1217.131 600,1128.475 600,1019.277L600,605.757C600,496.559 695.569,407.903 813.282,407.903L1259.048,407.903C1376.761,407.903 1472.33,496.559 1472.33,605.757Z" style="fill:white;"/>
            </g>
            <g id="Left-Lens" serif:id="Left Lens" transform="matrix(0.928548,0,0,1.000955,572.871443,1171.707317)">
                <path d="M1472.33,605.757L1472.33,1019.277C1472.33,1128.475 1376.761,1217.131 1259.048,1217.131L813.282,1217.131C695.569,1217.131 600,1128.475 600,1019.277L600,605.757C600,496.559 695.569,407.903 813.282,407.903L1259.048,407.903C1376.761,407.903 1472.33,496.559 1472.33,605.757Z" style="fill:white;"/>
            </g>
            <g id="White-Bridge" serif:id="White Bridge" transform="matrix(0.84889,0,0,1.08855,981.003567,1519.491999)">
                <path d="M1377.031,328.954L1380.617,328.954C1394.924,328.954 1406.539,338.012 1406.539,349.169L1406.539,506.112C1406.539,517.269 1394.924,526.327 1380.617,526.327L1377.031,526.327L1377.031,493.788C1377.031,482.631 1365.416,473.573 1351.109,473.573L1154.393,473.573C1140.086,473.573 1128.471,482.631 1128.471,493.788L1128.471,526.327L880.922,526.327C866.615,526.327 855,517.269 855,506.112L855,349.169C855,338.012 866.615,328.954 880.922,328.954L1128.471,328.954L1128.471,366.086C1128.471,377.243 1140.086,386.301 1154.393,386.301L1351.109,386.301C1365.416,386.301 1377.031,377.243 1377.031,366.086L1377.031,328.954Z" style="fill:white;"/>
            </g>
        </g>
        <g transform="matrix(-1.549609,-0,0,-1.80753,5152.651046,7464.240007)">
            <path d="M2170,2713.872L1847.338,2713.872C1847.338,2646.652 1919.568,2592.159 2008.669,2592.159C2097.77,2592.159 2170,2646.652 2170,2713.872Z" style="fill:white;"/>
        </g>
    </g>
</svg>
