<?xml version="1.0" encoding="UTF-8" standalone="no"?>
<!DOCTYPE svg PUBLIC "-//W3C//DTD SVG 1.1//EN" "http://www.w3.org/Graphics/SVG/1.1/DTD/svg11.dtd">
<svg width="100%" height="100%" viewBox="0 0 1024 694" version="1.1" xmlns="http://www.w3.org/2000/svg" xmlns:xlink="http://www.w3.org/1999/xlink" xml:space="preserve" xmlns:serif="http://www.serif.com/" style="fill-rule:evenodd;clip-rule:evenodd;stroke-linejoin:round;stroke-miterlimit:2;">
    <g id="Master-Robot-Base" serif:id="Master Robot Base" transform="matrix(0.369009,0,0,0.369009,-241.700901,-409.6)">
        <g id="Red-Robot-Head" serif:id="Red Robot Head">
            <g id="Left-Ear" serif:id="Left Ear" transform="matrix(0.569988,0,0,0.84069,393.289381,1184.557522)">
                <path d="M801.263,625.013L801.263,1368.45L729.391,1368.45C580.241,1368.45 459.151,1286.35 459.151,1185.227L459.151,808.235C459.151,707.112 580.241,625.013 729.391,625.013L801.263,625.013Z" style="fill:rgb(255,58,18);"/>
            </g>
            <g id="Right-Ear" serif:id="Right Ear" transform="matrix(0.569988,0,0,0.84069,2973.289381,1184.557522)">
                <path d="M801.263,808.235L801.263,1185.227C801.263,1286.35 680.173,1368.45 531.024,1368.45L459.151,1368.45L459.151,625.013L531.024,625.013C680.173,625.013 801.263,707.112 801.263,808.235Z" style="fill:rgb(255,58,18);"/>
            </g>
            <g id="Head" transform="matrix(1.416348,0,0,1.943905,-517.165553,-437.482993)">
                <path d="M2564.458,1045.107L2564.458,1514.157C2564.458,1651.605 2411.304,1763.195 2222.66,1763.195L1391.798,1763.195C1203.154,1763.195 1050,1651.605 1050,1514.157L1050,1045.107C1050,907.659 1203.154,796.069 1391.798,796.069L2222.66,796.069C2411.304,796.069 2564.458,907.659 2564.458,1045.107Z" style="fill:rgb(255,58,18);"/>
            </g>
        </g>
        <g id="Glasses">
            <g id="Right-Lens" serif:id="Right Lens" transform="matrix(0.928548,0,0,1.000955,1592.871443,1171.707317)">
                <path d="M1472.33,605.757L1472.33,1019.277C1472.33,1128.475 1376.761,1217.131 1259.048,1217.131L813.282,1217.131C695.569,1217.131 600,1128.475 600,1019.277L600,605.757C600,496.559 695.569,407.903 813.282,407.903L1259.048,407.903C1376.761,407.903 1472.33,496.559 1472.33,605.757Z" style="fill:white;"/>
            </g>
            <g id="Left-Lens" serif:id="Left Lens" transform="matrix(0.928548,0,0,1.000955,572.871443,1171.707317)">
                <path d="M1472.33,605.757L1472.33,1019.277C1472.33,1128.475 1376.761,1217.131 1259.048,1217.131L813.282,1217.131C695.569,1217.131 600,1128.475 600,1019.277L600,605.757C600,496.559 695.569,407.903 813.282,407.903L1259.048,407.903C1376.761,407.903 1472.33,496.559 1472.33,605.757Z" style="fill:white;"/>
            </g>
            <g id="White-Bridge" serif:id="White Bridge" transform="matrix(0.84889,0,0,1.08855,981.003567,1519.491999)">
                <path d="M1377.031,328.954L1380.617,328.954C1394.924,328.954 1406.539,338.012 1406.539,349.169L1406.539,506.112C1406.539,517.269 1394.924,526.327 1380.617,526.327L1377.031,526.327L1377.031,493.788C1377.031,482.631 1365.416,473.573 1351.109,473.573L1154.393,473.573C1140.086,473.573 1128.471,482.631 1128.471,493.788L1128.471,526.327L880.922,526.327C866.615,526.327 855,517.269 855,506.112L855,349.169C855,338.012 866.615,328.954 880.922,328.954L1128.471,328.954L1128.471,366.086C1128.471,377.243 1140.086,386.301 1154.393,386.301L1351.109,386.301C1365.416,386.301 1377.031,377.243 1377.031,366.086L1377.031,328.954Z" style="fill:white;"/>
            </g>
        </g>
        <g transform="matrix(-1.549609,-0,0,-1.80753,5152.651046,7464.240007)">
            <path d="M2170,2713.872L1847.338,2713.872C1847.338,2646.652 1919.568,2592.159 2008.669,2592.159C2097.77,2592.159 2170,2646.652 2170,2713.872Z" style="fill:white;"/>
        </g>
    </g>
</svg>
