<?xml version="1.0" encoding="UTF-8" standalone="no"?>
<!DOCTYPE svg PUBLIC "-//W3C//DTD SVG 1.1//EN" "http://www.w3.org/Graphics/SVG/1.1/DTD/svg11.dtd">
<svg width="100%" height="100%" viewBox="0 0 16 16" version="1.1" xmlns="http://www.w3.org/2000/svg" xmlns:xlink="http://www.w3.org/1999/xlink" xml:space="preserve" xmlns:serif="http://www.serif.com/" style="fill-rule:evenodd;clip-rule:evenodd;stroke-linejoin:round;stroke-miterlimit:2;">
    <path d="M5,4C4.726,4 4.5,4.226 4.5,4.5C4.5,4.774 4.726,5 5,5L11,5C11.274,5 11.5,4.774 11.5,4.5C11.5,4.226 11.274,4 11,4L5,4ZM4.5,6.5C4.5,6.226 4.726,6 5,6L11,6C11.274,6 11.5,6.226 11.5,6.5C11.5,6.774 11.274,7 11,7L5,7C4.726,7 4.5,6.774 4.5,6.5M5,8C4.726,8 4.5,8.226 4.5,8.5C4.5,8.774 4.726,9 5,9L11,9C11.274,9 11.5,8.774 11.5,8.5C11.5,8.226 11.274,8 11,8L5,8ZM5,10C4.726,10 4.5,10.226 4.5,10.5C4.5,10.774 4.726,11 5,11L8,11C8.274,11 8.5,10.774 8.5,10.5C8.5,10.226 8.274,10 8,10L5,10Z" style="fill:rgb(255,58,18);fill-rule:nonzero;"/>
    <path d="M2,2C2,0.903 2.903,0 4,0L12,0C13.097,-0 14,0.903 14,2L14,14C14,15.097 13.097,16 12,16L4,16C2.903,16 2,15.097 2,14L2,2ZM12,1L4,1C3.451,1 3,1.451 3,2L3,14C3,14.549 3.451,15 4,15L12,15C12.549,15 13,14.549 13,14L13,2C13,1.451 12.549,1 12,1" style="fill:rgb(255,58,18);fill-rule:nonzero;"/>
</svg>
